<?xml version="1.0" encoding="UTF-8"?>
<svg id="Layer_1" data-name="Layer 1" xmlns="http://www.w3.org/2000/svg" width="50px" height="49px" viewBox="0 0 4 3">
  <defs>
    <style>
      .cls-1 {
        fill: #f9fcfd;
      }
    </style>
  </defs>
  <path class="cls-1" d="M1.29,.89l-.21,.13c-.11-.16-.19-.33-.26-.51l-.16,.04s-.02,.03-.03,.05c-.07,.08-.2,.09-.28,.02-.09-.07-.1-.19-.02-.26,.07-.07,.18-.09,.26-.03l.17-.04,.25-.06c.05,.24,.15,.47,.29,.67Z"/>
  <path class="cls-1" d="M2.34,.67l.21,.13c.11-.16,.19-.33,.26-.51l.16,.04s.02,.03,.03,.05c.07,.08,.2,.09,.28,.02,.09-.07,.1-.19,.02-.26-.07-.07-.18-.09-.26-.03l-.17-.04-.25-.06c-.05,.24-.15,.47-.29,.67Z"/>
  <path class="cls-1" d="M2,.52C.9,.52,0,1.35,0,2.37c0,.13,.02,.26,.05,.39,.22,.15,.89,.28,1.76,.23,.95-.05,1.74-.3,2.2-.67,0-.06,0-.12-.01-.18-.13-.92-.98-1.61-1.98-1.61Zm-.71,2.02c-.34,0-.61-.26-.61-.57s.27-.57,.61-.57,.61,.26,.61,.57-.27,.57-.61,.57Zm1.56-.28c-.25,0-.45-.19-.45-.42s.2-.42,.45-.42,.45,.19,.45,.42-.2,.42-.45,.42Z"/>
</svg>